<svg width="64" height="64" viewBox="0 0 64 64" fill="none" xmlns="http://www.w3.org/2000/svg">
<g clip-path="url(#clip0_4453_1865)">
<path d="M25.1875 8.73438C27.0747 8.74211 27.0747 8.74211 29 8.75C30.2581 8.74484 31.5163 8.73969 32.8125 8.73438C36 9 36 9 38 11C38.125 14.125 38.125 14.125 38 17C39.2298 16.9652 40.4595 16.9304 41.7266 16.8945C43.3594 16.8664 44.9922 16.8391 46.625 16.8125C47.8374 16.7748 47.8374 16.7748 49.0742 16.7363C54.1423 16.6745 57.637 17.1204 62 20C64.4153 23.6229 64.3395 26.3606 64.3711 30.5547C64.3846 31.6625 64.3846 31.6625 64.3985 32.7928C64.413 34.3545 64.4218 35.9162 64.4255 37.478C64.4374 39.8601 64.4866 42.2396 64.5371 44.6211C64.5466 46.1406 64.5538 47.6601 64.5586 49.1797C64.5781 49.8882 64.5977 50.5967 64.6178 51.3266C64.5826 55.2129 64.1139 56.858 61.6526 59.9263C55.9544 64.381 49.1077 63.2222 42.1875 63.25C40.9158 63.2706 39.6442 63.2912 38.334 63.3125C37.1036 63.3177 35.8732 63.3228 34.6055 63.3281C32.9217 63.3421 32.9217 63.3421 31.2039 63.3564C26.5488 62.8385 23.1566 61.3845 20.1367 57.7695C18.6924 54.2506 18.7062 51.4789 18.8125 47.6875C18.8396 46.4332 18.8666 45.179 18.8945 43.8867C18.9293 42.9341 18.9641 41.9815 19 41C17.7213 41.0413 16.4425 41.0825 15.125 41.125C12.9453 41.1953 12.9453 41.1953 11 41C9 39 9 39 8.73438 35.8125C8.73953 34.5544 8.74469 33.2962 8.75 32C8.74484 30.7419 8.73969 29.4837 8.73438 28.1875C9 25 9 25 11 23C13.6884 22.7301 16.2914 22.9126 19 23C19.049 22.157 19.098 21.3139 19.1484 20.4453C19.2232 19.3496 19.298 18.2539 19.375 17.125C19.4794 15.4892 19.4794 15.4892 19.5859 13.8203C20.1887 9.71442 21.0676 9.0777 25.1875 8.73438ZM34 24C34 26.31 34 28.62 34 31C33.01 31 32.02 31 31 31C31 32.98 31 34.96 31 37C31.99 37 32.98 37 34 37C33.9768 37.7361 33.9536 38.4721 33.9297 39.2305C33.9116 40.2063 33.8936 41.1821 33.875 42.1875C33.8402 43.6319 33.8402 43.6319 33.8047 45.1055C34.0129 48.1913 34.5727 50.2635 36 53C39.3137 55.2091 40.3446 55.2248 44.1875 55.125C45.5391 55.0979 45.5391 55.0979 46.918 55.0703C47.605 55.0471 48.2921 55.0239 49 55C49.33 54.34 49.66 53.68 50 53C49.1084 50.8832 49.1084 50.8832 48 49C46.35 49 44.7 49 43 49C42.67 45.04 42.34 41.08 42 37C43.98 37 45.96 37 48 37C48 35.02 48 33.04 48 31C46.35 30.67 44.7 30.34 43 30C42.67 28.02 42.34 26.04 42 24C39.36 24 36.72 24 34 24Z" fill="#FD6519"/>
<path d="M9.28516 9.90234C10.6599 9.91975 10.6599 9.91975 12.0625 9.9375C12.9816 9.94652 13.9007 9.95555 14.8477 9.96484C15.5579 9.97645 16.2682 9.98805 17 10C18.493 12.9859 18.1176 15.7085 18 19C17.67 19.66 17.34 20.32 17 21C15.3543 21.0269 13.7084 21.0463 12.0625 21.0625C11.146 21.0741 10.2295 21.0857 9.28516 21.0977C7 21 7 21 6 20C5.90209 18.5026 5.87025 17.0006 5.875 15.5C5.87242 14.6853 5.86984 13.8706 5.86719 13.0312C6.05758 10.1194 6.36292 10.0272 9.28516 9.90234Z" fill="#FB651A"/>
<path d="M18.5625 -0.0625C19.6969 -0.041875 20.8312 -0.02125 22 0C22 2.31 22 4.62 22 7C19.6671 7.04242 17.333 7.04093 15 7C14 6 14 6 13.875 3.5C14.0721 -0.441606 14.462 0.00943942 18.5625 -0.0625Z" fill="#FA651A"/>
<path d="M1.00001 22C3.00722 22.2867 5.0086 22.6187 7.00001 23C7.04255 24.9995 7.04082 27.0004 7.00001 29C6.00001 30 6.00001 30 2.93751 30.0625C1.96813 30.0419 0.998757 30.0213 7.46548e-06 30C-0.0424098 27.6671 -0.0409219 25.333 7.46548e-06 23C0.330007 22.67 0.660008 22.34 1.00001 22Z" fill="#F9641B"/>
<path d="M3.5625 3.9375C4.76906 3.96844 4.76906 3.96844 6 4C6 5.98 6 7.96 6 10C4.35 10 2.7 10 1 10C0.617812 8.34385 0.286049 6.67543 0 5C1 4 1 4 3.5625 3.9375Z" fill="#F8641B"/>
</g>
<defs>
<clipPath id="clip0_4453_1865">
<rect width="64" height="64" fill="white"/>
</clipPath>
</defs>
</svg>
